<svg width="34" height="34" viewBox="0 0 34 34" fill="none" xmlns="http://www.w3.org/2000/svg">
<path fill-rule="evenodd" clip-rule="evenodd" d="M23.2165 10.7839C23.3571 10.9245 23.4362 11.1153 23.4362 11.3142C23.4362 11.5131 23.3571 11.7039 23.2165 11.8445L18.09 16.971L23.2165 22.0976C23.3571 22.2382 23.4362 22.429 23.4362 22.6279C23.4362 22.8268 23.3571 23.0176 23.2165 23.1582C23.0758 23.2989 22.8851 23.3779 22.6862 23.3779C22.4872 23.3779 22.2965 23.2989 22.1558 23.1582L17.0293 18.0317L11.9028 23.1582C11.7621 23.2989 11.5714 23.3779 11.3724 23.3779C11.1735 23.3779 10.9828 23.2989 10.8421 23.1582C10.7015 23.0176 10.6224 22.8268 10.6224 22.6279C10.6224 22.429 10.7015 22.2382 10.8421 22.0976L15.9686 16.971L10.8421 11.8445C10.7015 11.7039 10.6224 11.5131 10.6224 11.3142C10.6224 11.1153 10.7015 10.9245 10.8421 10.7839C10.9828 10.6432 11.1735 10.5642 11.3724 10.5642C11.5714 10.5642 11.7621 10.6432 11.9028 10.7839L17.0293 15.9104L22.1558 10.7839C22.2965 10.6432 22.4872 10.5642 22.6862 10.5642C22.8851 10.5642 23.0758 10.6432 23.2165 10.7839Z" fill="url(#paint0_linear_1034_1980)"/>
<defs>
<linearGradient id="paint0_linear_1034_1980" x1="10.8421" y1="10.7839" x2="23.2165" y2="23.1582" gradientUnits="userSpaceOnUse">
<stop stop-color="#FF5F2D"/>
<stop offset="1" stop-color="#D40000"/>
</linearGradient>
</defs>
</svg>
