<svg width="193" height="36" viewBox="0 0 193 36" fill="none" xmlns="http://www.w3.org/2000/svg">
<path d="M-0.000106812 9.97021L39.3899 9.97021V0.000214577L-0.000106812 0.000214577V9.97021Z" fill="white"/>
<path d="M13.06 35.93L0 22.92V13.04H6.64L19.7 26.33L32.75 13.04H39.39V22.92L26.33 35.93H13.06Z" fill="white"/>
<path d="M55.3899 0.27002H59.8499L64.7899 8.22002L69.7299 0.27002H74.1899V19.07H70.0799V6.79002L64.7899 14.82H64.6799L59.4399 6.87002V19.06H55.3899V0.27002Z" fill="white"/>
<path d="M89.9697 0.129883H93.7797L101.84 19.0599H97.5197L95.7997 14.8399H87.8497L86.1297 19.0599H81.9097L89.9697 0.129883ZM94.3197 11.1999L91.8197 5.09988L89.3197 11.1999H94.3097H94.3197Z" fill="white"/>
<path d="M108.01 16.33L110.45 13.4C112.17 14.8 113.91 15.68 116.06 15.68C117.78 15.68 118.77 15.01 118.77 13.91V13.86C118.77 12.81 118.13 12.25 114.98 11.47C111.17 10.53 108.75 9.43 108.75 5.72V5.67C108.75 2.26 111.46 0 115.33 0C118.1 0 120.38 0.86 122.31 2.39L120.16 5.5C118.47 4.35 116.88 3.65 115.27 3.65C113.66 3.65 112.85 4.35 112.85 5.29V5.34C112.85 6.6 113.66 6.95 116.9 7.81C120.71 8.83 122.86 10.17 122.86 13.45V13.5C122.86 17.23 120.01 19.33 115.96 19.33C113.09 19.33 110.24 18.36 107.99 16.32L108.01 16.33Z" fill="white"/>
<path d="M135.3 4.08002H129.58V0.27002H145.15V4.08002H139.43V19.06H135.29V4.08002H135.3Z" fill="white"/>
<path d="M153.15 0.27002H167.33V3.95002H157.26V7.76002H166.12V11.44H157.26V15.39H167.46V19.07H153.15V0.27002Z" fill="white"/>
<path d="M175.98 0.27002H184.57C186.96 0.27002 188.79 0.91002 190.05 2.18002C191.12 3.25002 191.66 4.68002 191.66 6.48002V6.53002C191.66 9.56002 190.02 11.47 187.63 12.36L192.22 19.07H187.39L183.36 13.06H180.11V19.07H175.97V0.27002H175.98ZM184.3 9.40002C186.34 9.40002 187.47 8.35002 187.47 6.74002V6.69002C187.47 4.89002 186.26 4.01002 184.22 4.01002H180.11V9.41002H184.3V9.40002Z" fill="white"/>
<path d="M60.4999 23.3999H62.9099L68.0099 35.3899H65.2699L64.1799 32.7199H59.1499L58.0599 35.3899H55.3899L60.4899 23.3999H60.4999ZM63.2499 30.4099L61.6699 26.5499L60.0899 30.4099H63.2499Z" fill="white"/>
<path d="M70.1899 23.4902H79.2499V25.8702H72.8099V28.4002H78.4899V30.7802H72.8099V35.3902H70.1899V23.4902Z" fill="white"/>
<path d="M81.6797 23.4902H90.7397V25.8702H84.2997V28.4002H89.9797V30.7802H84.2997V35.3902H81.6797V23.4902Z" fill="white"/>
<path d="M93.29 23.4902H95.91V35.3902H93.29V23.4902Z" fill="white"/>
<path d="M99.23 23.4902H101.85V33.0102H107.78V35.3902H99.23V23.4902Z" fill="white"/>
<path d="M110.21 23.4902H112.83V35.3902H110.21V23.4902Z" fill="white"/>
<path d="M120.22 23.3999H122.63L127.73 35.3899H124.99L123.9 32.7199H118.87L117.78 35.3899H115.11L120.21 23.3999H120.22ZM122.98 30.4099L121.4 26.5499L119.82 30.4099H122.98Z" fill="white"/>
<path d="M131.16 25.9002H127.54V23.4902H137.4V25.9002H133.78V35.3902H131.16V25.9002Z" fill="white"/>
<path d="M139.74 23.4902H148.72V25.8202H142.34V28.2302H147.95V30.5602H142.34V33.0602H148.8V35.3902H139.74V23.4902Z" fill="white"/>
<path d="M150.66 33.6601L152.21 31.8101C153.3 32.6901 154.4 33.2501 155.76 33.2501C156.85 33.2501 157.48 32.8201 157.48 32.1301V32.1001C157.48 31.4401 157.07 31.0801 155.08 30.5901C152.67 30.0001 151.14 29.3001 151.14 26.9501V26.9201C151.14 24.7601 152.86 23.3301 155.31 23.3301C157.06 23.3301 158.51 23.8701 159.73 24.8401L158.37 26.8101C157.3 26.0801 156.3 25.6401 155.28 25.6401C154.26 25.6401 153.75 26.0801 153.75 26.6801V26.7101C153.75 27.5101 154.26 27.7301 156.32 28.2701C158.73 28.9201 160.09 29.7701 160.09 31.8401V31.8701C160.09 34.2301 158.29 35.5601 155.72 35.5601C153.9 35.5601 152.1 34.9501 150.67 33.6601H150.66Z" fill="white"/>
</svg>
