<svg width="193" height="37" viewBox="0 0 193 37" fill="none" xmlns="http://www.w3.org/2000/svg">
<path d="M-0.000350952 10.5054L39.3896 10.5054V0.535371L-0.000350952 0.535371V10.5054Z" fill="white"/>
<path d="M13.06 36.4652L0 23.4552V13.5752H6.64L19.7 26.8652L32.75 13.5752H39.39V23.4552L26.33 36.4652H13.06Z" fill="white"/>
<path d="M55.3896 0.805176H59.8497L64.7896 8.75518L69.7296 0.805176H74.1896V19.6052H70.0796V7.32518L64.7896 15.3552H64.6797L59.4397 7.40518V19.5952H55.3896V0.805176Z" fill="white"/>
<path d="M89.9692 0.665039H93.7792L101.839 19.595H97.5192L95.7992 15.375H87.8492L86.1292 19.595H81.9092L89.9692 0.665039ZM94.3192 11.735L91.8192 5.63504L89.3192 11.735H94.3092H94.3192Z" fill="white"/>
<path d="M108.009 16.8652L110.449 13.9352C112.169 15.3352 113.909 16.2152 116.059 16.2152C117.779 16.2152 118.769 15.5452 118.769 14.4452V14.3952C118.769 13.3452 118.129 12.7852 114.979 12.0052C111.169 11.0652 108.749 9.96516 108.749 6.25516V6.20516C108.749 2.79516 111.459 0.535156 115.329 0.535156C118.099 0.535156 120.379 1.39516 122.309 2.92516L120.159 6.03516C118.469 4.88516 116.879 4.18516 115.269 4.18516C113.659 4.18516 112.849 4.88516 112.849 5.82516V5.87516C112.849 7.13516 113.659 7.48516 116.899 8.34516C120.709 9.36516 122.859 10.7052 122.859 13.9852V14.0352C122.859 17.7652 120.009 19.8652 115.959 19.8652C113.089 19.8652 110.239 18.8952 107.989 16.8552L108.009 16.8652Z" fill="white"/>
<path d="M135.3 4.61518H129.58V0.805176H145.15V4.61518H139.43V19.5952H135.29V4.61518H135.3Z" fill="white"/>
<path d="M153.149 0.805176H167.329V4.48518H157.259V8.29518H166.119V11.9752H157.259V15.9252H167.459V19.6052H153.149V0.805176Z" fill="white"/>
<path d="M175.98 0.805176H184.57C186.96 0.805176 188.79 1.44518 190.05 2.71518C191.12 3.78518 191.66 5.21518 191.66 7.01518V7.06518C191.66 10.0952 190.02 12.0052 187.63 12.8952L192.22 19.6052H187.39L183.36 13.5952H180.11V19.6052H175.97V0.805176H175.98ZM184.3 9.93517C186.34 9.93517 187.47 8.88518 187.47 7.27518V7.22518C187.47 5.42518 186.26 4.54518 184.22 4.54518H180.11V9.94518H184.3V9.93517Z" fill="white"/>
<path d="M60.4996 23.9351H62.9096L68.0097 35.9251H65.2696L64.1796 33.2551H59.1496L58.0596 35.9251H55.3896L60.4896 23.9351H60.4996ZM63.2496 30.9451L61.6696 27.0851L60.0896 30.9451H63.2496Z" fill="white"/>
<path d="M70.1895 24.0254H79.2495V26.4054H72.8094V28.9354H78.4894V31.3154H72.8094V35.9254H70.1895V24.0254Z" fill="white"/>
<path d="M81.6797 24.0254H90.7397V26.4054H84.2997V28.9354H89.9797V31.3154H84.2997V35.9254H81.6797V24.0254Z" fill="white"/>
<path d="M93.29 24.0254H95.91V35.9254H93.29V24.0254Z" fill="white"/>
<path d="M99.2295 24.0254H101.849V33.5454H107.779V35.9254H99.2295V24.0254Z" fill="white"/>
<path d="M110.21 24.0254H112.83V35.9254H110.21V24.0254Z" fill="white"/>
<path d="M120.219 23.9351H122.629L127.729 35.9251H124.989L123.899 33.2551H118.869L117.779 35.9251H115.109L120.209 23.9351H120.219ZM122.979 30.9451L121.399 27.0851L119.819 30.9451H122.979Z" fill="white"/>
<path d="M131.16 26.4354H127.54V24.0254H137.4V26.4354H133.78V35.9254H131.16V26.4354Z" fill="white"/>
<path d="M139.739 24.0254H148.719V26.3554H142.339V28.7654H147.949V31.0954H142.339V33.5954H148.799V35.9254H139.739V24.0254Z" fill="white"/>
<path d="M150.659 34.1952L152.209 32.3452C153.299 33.2252 154.399 33.7852 155.759 33.7852C156.849 33.7852 157.479 33.3552 157.479 32.6652V32.6352C157.479 31.9752 157.069 31.6152 155.079 31.1252C152.669 30.5352 151.139 29.8352 151.139 27.4852V27.4552C151.139 25.2952 152.859 23.8652 155.309 23.8652C157.059 23.8652 158.509 24.4052 159.729 25.3752L158.369 27.3452C157.299 26.6152 156.299 26.1752 155.279 26.1752C154.259 26.1752 153.749 26.6152 153.749 27.2152V27.2452C153.749 28.0452 154.259 28.2652 156.319 28.8052C158.729 29.4552 160.089 30.3052 160.089 32.3752V32.4052C160.089 34.7652 158.289 36.0952 155.719 36.0952C153.899 36.0952 152.099 35.4852 150.669 34.1952H150.659Z" fill="white"/>
</svg>
