<svg width="14" height="22" viewBox="0 0 14 22" fill="none" xmlns="http://www.w3.org/2000/svg">
<mask id="mask0_631_3360" style="mask-type:alpha" maskUnits="userSpaceOnUse" x="0" y="-1" width="14" height="24">
<rect y="-1" width="14" height="24" fill="#D9D9D9"/>
</mask>
<g mask="url(#mask0_631_3360)">
<path d="M2.3077 21.4999C1.80257 21.4999 1.375 21.3249 1.025 20.9749C0.675 20.6249 0.5 20.1974 0.5 19.6923V2.3077C0.5 1.80257 0.675 1.375 1.025 1.025C1.375 0.675 1.80257 0.5 2.3077 0.5H11.6922C12.1974 0.5 12.625 0.675 12.975 1.025C13.325 1.375 13.5 1.80257 13.5 2.3077V19.6923C13.5 20.1974 13.325 20.625 12.975 20.975C12.625 21.325 12.1974 21.5 11.6922 21.5L2.3077 21.4999ZM1.99997 16.7692V19.6923C1.99997 19.7692 2.03203 19.8397 2.09613 19.9039C2.16024 19.968 2.23077 20 2.3077 20H11.6922C11.7692 20 11.8397 19.968 11.9038 19.9039C11.9679 19.8397 12 19.7692 12 19.6923V16.7692H1.99997ZM6.99997 19.2692C7.24484 19.2692 7.45349 19.183 7.62592 19.0106C7.79836 18.8381 7.88457 18.6295 7.88457 18.3846C7.88457 18.1397 7.79836 17.9311 7.62592 17.7587C7.45349 17.5862 7.24484 17.5 6.99997 17.5C6.75511 17.5 6.54646 17.5862 6.37402 17.7586C6.20159 17.9311 6.11538 18.1397 6.11538 18.3846C6.11538 18.6294 6.20159 18.8381 6.37402 19.0105C6.54646 19.183 6.75511 19.2692 6.99997 19.2692ZM1.99997 15.2692H12V4.74995H1.99997V15.2692ZM1.99997 3.25H12V2.3077C12 2.23077 11.9679 2.16024 11.9038 2.09613C11.8397 2.03203 11.7692 1.99998 11.6922 1.99998H2.3077C2.23077 1.99998 2.16024 2.03203 2.09613 2.09613C2.03203 2.16024 1.99997 2.23077 1.99997 2.3077V3.25Z" fill="white"/>
</g>
</svg>
