<svg width="24" height="25" viewBox="0 0 24 25" fill="none" xmlns="http://www.w3.org/2000/svg">
<path fill-rule="evenodd" clip-rule="evenodd" d="M12 4.19092C12.1989 4.19092 12.3897 4.26994 12.5303 4.41059C12.671 4.55124 12.75 4.74201 12.75 4.94092V12.1909H20C20.1989 12.1909 20.3897 12.2699 20.5303 12.4106C20.671 12.5512 20.75 12.742 20.75 12.9409C20.75 13.1398 20.671 13.3306 20.5303 13.4712C20.3897 13.6119 20.1989 13.6909 20 13.6909H12.75V20.9409C12.75 21.1398 12.671 21.3306 12.5303 21.4712C12.3897 21.6119 12.1989 21.6909 12 21.6909C11.8011 21.6909 11.6103 21.6119 11.4697 21.4712C11.329 21.3306 11.25 21.1398 11.25 20.9409V13.6909H4C3.80109 13.6909 3.61032 13.6119 3.46967 13.4712C3.32902 13.3306 3.25 13.1398 3.25 12.9409C3.25 12.742 3.32902 12.5512 3.46967 12.4106C3.61032 12.2699 3.80109 12.1909 4 12.1909H11.25V4.94092C11.25 4.74201 11.329 4.55124 11.4697 4.41059C11.6103 4.26994 11.8011 4.19092 12 4.19092Z" fill="black"/>
</svg>
