<svg width="1120" height="73" viewBox="0 0 1120 73" fill="none" xmlns="http://www.w3.org/2000/svg">
<mask id="path-1-inside-1_638_9829" fill="white">
<path d="M0 0.940918H1120V72.9409H0V0.940918Z"/>
</mask>
<path d="M0 1.94092H1120V-0.059082H0V1.94092ZM1120 71.9409H0V73.9409H1120V71.9409Z" fill="#D2D2D2" mask="url(#path-1-inside-1_638_9829)"/>
<path d="M5.77841 43.9409H1.13778V30.85H5.81676C7.13352 30.85 8.26705 31.1121 9.21733 31.6362C10.1676 32.1561 10.8984 32.904 11.4098 33.8798C11.9254 34.8557 12.1832 36.0233 12.1832 37.3827C12.1832 38.7463 11.9254 39.9182 11.4098 40.8983C10.8984 41.8784 10.1634 42.6305 9.20455 43.1547C8.25 43.6788 7.10795 43.9409 5.77841 43.9409ZM3.90554 41.5695H5.66335C6.48153 41.5695 7.16974 41.4246 7.72798 41.1348C8.29048 40.8408 8.71236 40.3869 8.99361 39.7733C9.27912 39.1554 9.42188 38.3585 9.42188 37.3827C9.42188 36.4153 9.27912 35.6249 8.99361 35.0112C8.71236 34.3976 8.29261 33.9459 7.73438 33.6561C7.17614 33.3663 6.48793 33.2215 5.66974 33.2215H3.90554V41.5695ZM18.6184 44.1327C17.6255 44.1327 16.7669 43.9217 16.0424 43.4999C15.3223 43.0737 14.7662 42.4814 14.3741 41.7229C13.9821 40.9601 13.786 40.0759 13.786 39.0702C13.786 38.056 13.9821 37.1696 14.3741 36.4111C14.7662 35.6483 15.3223 35.056 16.0424 34.6341C16.7669 34.208 17.6255 33.9949 18.6184 33.9949C19.6113 33.9949 20.4679 34.208 21.188 34.6341C21.9125 35.056 22.4707 35.6483 22.8627 36.4111C23.2548 37.1696 23.4508 38.056 23.4508 39.0702C23.4508 40.0759 23.2548 40.9601 22.8627 41.7229C22.4707 42.4814 21.9125 43.0737 21.188 43.4999C20.4679 43.9217 19.6113 44.1327 18.6184 44.1327ZM18.6312 42.0233C19.0829 42.0233 19.46 41.8955 19.7626 41.6398C20.0652 41.3798 20.2931 41.0261 20.4466 40.5787C20.6042 40.1313 20.6831 39.622 20.6831 39.051C20.6831 38.48 20.6042 37.9707 20.4466 37.5233C20.2931 37.0759 20.0652 36.7222 19.7626 36.4622C19.46 36.2023 19.0829 36.0723 18.6312 36.0723C18.1752 36.0723 17.7917 36.2023 17.4806 36.4622C17.1738 36.7222 16.9416 37.0759 16.7839 37.5233C16.6305 37.9707 16.5538 38.48 16.5538 39.051C16.5538 39.622 16.6305 40.1313 16.7839 40.5787C16.9416 41.0261 17.1738 41.3798 17.4806 41.6398C17.7917 41.8955 18.1752 42.0233 18.6312 42.0233ZM29.6958 44.1327C28.6859 44.1327 27.8166 43.9281 27.0879 43.519C26.3635 43.1057 25.8052 42.5219 25.4132 41.7676C25.0211 41.0091 24.8251 40.1121 24.8251 39.0766C24.8251 38.0666 25.0211 37.1803 25.4132 36.4175C25.8052 35.6547 26.3571 35.0602 27.0687 34.6341C27.7846 34.208 28.6241 33.9949 29.5872 33.9949C30.2349 33.9949 30.8379 34.0993 31.3961 34.3081C31.9586 34.5127 32.4487 34.8216 32.8663 35.235C33.2882 35.6483 33.6163 36.1682 33.8507 36.7946C34.0851 37.4168 34.2022 38.1455 34.2022 38.9807V39.7286H25.9118V38.0411H31.639C31.639 37.649 31.5538 37.3017 31.3833 36.9992C31.2129 36.6966 30.9764 36.4601 30.6738 36.2896C30.3755 36.1149 30.0282 36.0276 29.6319 36.0276C29.2186 36.0276 28.8521 36.1234 28.5325 36.3152C28.2172 36.5027 27.97 36.7563 27.791 37.0759C27.612 37.3912 27.5204 37.7428 27.5162 38.1305V39.735C27.5162 40.2207 27.6056 40.6405 27.7846 40.9942C27.9679 41.3479 28.2257 41.6206 28.5581 41.8124C28.8904 42.0041 29.2846 42.1 29.7406 42.1C30.0431 42.1 30.3201 42.0574 30.5716 41.9722C30.823 41.8869 31.0382 41.7591 31.2172 41.5886C31.3961 41.4182 31.5325 41.2094 31.6262 40.9622L34.1447 41.1284C34.0169 41.7335 33.7548 42.2619 33.3585 42.7136C32.9664 43.1611 32.4593 43.5105 31.8372 43.7619C31.2193 44.0091 30.5055 44.1327 29.6958 44.1327ZM44.1483 36.9225L41.6554 37.0759C41.6127 36.8628 41.5211 36.671 41.3805 36.5006C41.2399 36.3259 41.0545 36.1874 40.8244 36.0851C40.5985 35.9786 40.3279 35.9253 40.0126 35.9253C39.5907 35.9253 39.2349 36.0148 38.9451 36.1938C38.6554 36.3685 38.5105 36.6028 38.5105 36.8969C38.5105 37.1313 38.6042 37.3294 38.7917 37.4913C38.9792 37.6533 39.301 37.7832 39.7569 37.8813L41.5339 38.2392C42.4885 38.4352 43.2001 38.7506 43.6689 39.1852C44.1376 39.6199 44.372 40.1909 44.372 40.8983C44.372 41.5418 44.1824 42.1064 43.8031 42.5922C43.4281 43.078 42.9125 43.4573 42.2562 43.73C41.6042 43.9984 40.8521 44.1327 39.9998 44.1327C38.7001 44.1327 37.6646 43.8621 36.8933 43.3209C36.1262 42.7754 35.6767 42.034 35.5446 41.0965L38.2228 40.9558C38.3038 41.3521 38.4998 41.6547 38.8109 41.8635C39.122 42.068 39.5204 42.1703 40.0062 42.1703C40.4835 42.1703 40.867 42.0787 41.1568 41.8955C41.4508 41.708 41.6 41.4672 41.6042 41.1732C41.6 40.926 41.4956 40.7236 41.291 40.5659C41.0865 40.404 40.7711 40.2804 40.345 40.1952L38.6447 39.8564C37.6859 39.6646 36.9721 39.3323 36.5034 38.8592C36.0389 38.3862 35.8066 37.7832 35.8066 37.0503C35.8066 36.4196 35.9771 35.8763 36.318 35.4203C36.6632 34.9644 37.1468 34.6128 37.769 34.3656C38.3954 34.1185 39.1284 33.9949 39.9679 33.9949C41.2079 33.9949 42.1838 34.257 42.8954 34.7811C43.6113 35.3053 44.0289 36.019 44.1483 36.9225ZM50.2527 43.9409V34.1227H52.9757V43.9409H50.2527ZM51.6206 32.8571C51.2157 32.8571 50.8684 32.7229 50.5787 32.4544C50.2931 32.1817 50.1504 31.8557 50.1504 31.4764C50.1504 31.1014 50.2931 30.7797 50.5787 30.5112C50.8684 30.2385 51.2157 30.1021 51.6206 30.1021C52.0254 30.1021 52.3706 30.2385 52.6561 30.5112C52.9458 30.7797 53.0907 31.1014 53.0907 31.4764C53.0907 31.8557 52.9458 32.1817 52.6561 32.4544C52.3706 32.7229 52.0254 32.8571 51.6206 32.8571ZM60.3793 34.1227V36.1682H54.4666V34.1227H60.3793ZM55.8089 31.7705H58.532V40.9239C58.532 41.1753 58.5703 41.3713 58.647 41.5119C58.7237 41.6483 58.8303 41.7442 58.9666 41.7996C59.1072 41.855 59.2692 41.8827 59.4524 41.8827C59.5803 41.8827 59.7081 41.872 59.8359 41.8507C59.9638 41.8252 60.0618 41.806 60.13 41.7932L60.5582 43.8195C60.4219 43.8621 60.2301 43.9111 59.983 43.9665C59.7358 44.0261 59.4354 44.0624 59.0817 44.0752C58.4254 44.1007 57.8501 44.0134 57.3558 43.8131C56.8658 43.6128 56.4844 43.3017 56.2116 42.8798C55.9389 42.458 55.8047 41.9253 55.8089 41.2818V31.7705ZM70.7551 44.1327C69.7495 44.1327 68.8844 43.9196 68.16 43.4935C67.4398 43.0631 66.8858 42.4665 66.498 41.7037C66.1145 40.9409 65.9228 40.0631 65.9228 39.0702C65.9228 38.0645 66.1167 37.1824 66.5044 36.4239C66.8965 35.6611 67.4526 35.0666 68.1728 34.6405C68.8929 34.2101 69.7495 33.9949 70.7424 33.9949C71.5989 33.9949 72.3489 34.1504 72.9924 34.4615C73.6358 34.7726 74.1451 35.2094 74.5201 35.7719C74.8951 36.3344 75.1017 36.9949 75.1401 37.7534H72.5705C72.498 37.2634 72.3063 36.8692 71.9952 36.5709C71.6884 36.2683 71.2857 36.1171 70.7871 36.1171C70.3652 36.1171 69.9966 36.2321 69.6813 36.4622C69.3702 36.6881 69.1273 37.0183 68.9526 37.453C68.7779 37.8877 68.6905 38.4139 68.6905 39.0318C68.6905 39.6582 68.7757 40.1909 68.9462 40.6298C69.1209 41.0688 69.3659 41.4033 69.6813 41.6334C69.9966 41.8635 70.3652 41.9786 70.7871 41.9786C71.0982 41.9786 71.3773 41.9146 71.6245 41.7868C71.8759 41.659 72.0826 41.4736 72.2445 41.2307C72.4107 40.9835 72.5194 40.6874 72.5705 40.3422H75.1401C75.0975 41.0922 74.8929 41.7527 74.5265 42.3237C74.1642 42.8905 73.6635 43.3337 73.0243 43.6533C72.3851 43.9729 71.6287 44.1327 70.7551 44.1327ZM81.3196 44.1327C80.3267 44.1327 79.468 43.9217 78.7436 43.4999C78.0234 43.0737 77.4673 42.4814 77.0753 41.7229C76.6832 40.9601 76.4872 40.0759 76.4872 39.0702C76.4872 38.056 76.6832 37.1696 77.0753 36.4111C77.4673 35.6483 78.0234 35.056 78.7436 34.6341C79.468 34.208 80.3267 33.9949 81.3196 33.9949C82.3125 33.9949 83.169 34.208 83.8892 34.6341C84.6136 35.056 85.1719 35.6483 85.5639 36.4111C85.956 37.1696 86.152 38.056 86.152 39.0702C86.152 40.0759 85.956 40.9601 85.5639 41.7229C85.1719 42.4814 84.6136 43.0737 83.8892 43.4999C83.169 43.9217 82.3125 44.1327 81.3196 44.1327ZM81.3324 42.0233C81.7841 42.0233 82.1612 41.8955 82.4638 41.6398C82.7663 41.3798 82.9943 41.0261 83.1477 40.5787C83.3054 40.1313 83.3842 39.622 83.3842 39.051C83.3842 38.48 83.3054 37.9707 83.1477 37.5233C82.9943 37.0759 82.7663 36.7222 82.4638 36.4622C82.1612 36.2023 81.7841 36.0723 81.3324 36.0723C80.8764 36.0723 80.4929 36.2023 80.1818 36.4622C79.875 36.7222 79.6428 37.0759 79.4851 37.5233C79.3317 37.9707 79.255 38.48 79.255 39.051C79.255 39.622 79.3317 40.1313 79.4851 40.5787C79.6428 41.0261 79.875 41.3798 80.1818 41.6398C80.4929 41.8955 80.8764 42.0233 81.3324 42.0233ZM96.0916 36.9225L93.5987 37.0759C93.5561 36.8628 93.4645 36.671 93.3239 36.5006C93.1832 36.3259 92.9979 36.1874 92.7678 36.0851C92.5419 35.9786 92.2713 35.9253 91.956 35.9253C91.5341 35.9253 91.1783 36.0148 90.8885 36.1938C90.5987 36.3685 90.4538 36.6028 90.4538 36.8969C90.4538 37.1313 90.5476 37.3294 90.7351 37.4913C90.9226 37.6533 91.2443 37.7832 91.7003 37.8813L93.4773 38.2392C94.4318 38.4352 95.1435 38.7506 95.6122 39.1852C96.081 39.6199 96.3153 40.1909 96.3153 40.8983C96.3153 41.5418 96.1257 42.1064 95.7464 42.5922C95.3714 43.078 94.8558 43.4573 94.1996 43.73C93.5476 43.9984 92.7955 44.1327 91.9432 44.1327C90.6435 44.1327 89.608 43.8621 88.8366 43.3209C88.0696 42.7754 87.62 42.034 87.4879 41.0965L90.1662 40.9558C90.2472 41.3521 90.4432 41.6547 90.7543 41.8635C91.0653 42.068 91.4638 42.1703 91.9496 42.1703C92.4268 42.1703 92.8104 42.0787 93.1001 41.8955C93.3942 41.708 93.5433 41.4672 93.5476 41.1732C93.5433 40.926 93.4389 40.7236 93.2344 40.5659C93.0298 40.404 92.7145 40.2804 92.2884 40.1952L90.5881 39.8564C89.6293 39.6646 88.9155 39.3323 88.4467 38.8592C87.9822 38.3862 87.75 37.7832 87.75 37.0503C87.75 36.4196 87.9205 35.8763 88.2614 35.4203C88.6065 34.9644 89.0902 34.6128 89.7124 34.3656C90.3388 34.1185 91.0717 33.9949 91.9112 33.9949C93.1513 33.9949 94.1271 34.257 94.8388 34.7811C95.5547 35.3053 95.9723 36.019 96.0916 36.9225ZM103.252 34.1227V36.1682H97.3397V34.1227H103.252ZM98.682 31.7705H101.405V40.9239C101.405 41.1753 101.443 41.3713 101.52 41.5119C101.597 41.6483 101.703 41.7442 101.84 41.7996C101.98 41.855 102.142 41.8827 102.325 41.8827C102.453 41.8827 102.581 41.872 102.709 41.8507C102.837 41.8252 102.935 41.806 103.003 41.7932L103.431 43.8195C103.295 43.8621 103.103 43.9111 102.856 43.9665C102.609 44.0261 102.308 44.0624 101.955 44.0752C101.298 44.1007 100.723 44.0134 100.229 43.8131C99.7388 43.6128 99.3574 43.3017 99.0847 42.8798C98.812 42.458 98.6777 41.9253 98.682 41.2818V31.7705ZM109.192 43.9409V34.1227H111.787V35.855H111.902C112.107 35.2797 112.448 34.8259 112.925 34.4935C113.402 34.1611 113.973 33.9949 114.638 33.9949C115.311 33.9949 115.885 34.1632 116.358 34.4999C116.831 34.8323 117.146 35.284 117.304 35.855H117.406C117.606 35.2925 117.968 34.8429 118.493 34.5063C119.021 34.1653 119.645 33.9949 120.365 33.9949C121.282 33.9949 122.025 34.2868 122.596 34.8706C123.172 35.4502 123.459 36.2726 123.459 37.3379V43.9409H120.743V37.8749C120.743 37.3294 120.598 36.9203 120.308 36.6476C120.018 36.3749 119.656 36.2385 119.221 36.2385C118.727 36.2385 118.341 36.3962 118.064 36.7115C117.787 37.0226 117.649 37.4338 117.649 37.9452V43.9409H115.009V37.8173C115.009 37.3358 114.87 36.9523 114.593 36.6668C114.321 36.3813 113.961 36.2385 113.513 36.2385C113.211 36.2385 112.938 36.3152 112.695 36.4686C112.456 36.6178 112.267 36.8287 112.126 37.1014C111.985 37.3699 111.915 37.6852 111.915 38.0475V43.9409H109.192ZM130.085 44.1327C129.075 44.1327 128.205 43.9281 127.477 43.519C126.752 43.1057 126.194 42.5219 125.802 41.7676C125.41 41.0091 125.214 40.1121 125.214 39.0766C125.214 38.0666 125.41 37.1803 125.802 36.4175C126.194 35.6547 126.746 35.0602 127.457 34.6341C128.173 34.208 129.013 33.9949 129.976 33.9949C130.624 33.9949 131.227 34.0993 131.785 34.3081C132.347 34.5127 132.837 34.8216 133.255 35.235C133.677 35.6483 134.005 36.1682 134.239 36.7946C134.474 37.4168 134.591 38.1455 134.591 38.9807V39.7286H126.3V38.0411H132.028C132.028 37.649 131.942 37.3017 131.772 36.9992C131.602 36.6966 131.365 36.4601 131.062 36.2896C130.764 36.1149 130.417 36.0276 130.021 36.0276C129.607 36.0276 129.241 36.1234 128.921 36.3152C128.606 36.5027 128.359 36.7563 128.18 37.0759C128.001 37.3912 127.909 37.7428 127.905 38.1305V39.735C127.905 40.2207 127.994 40.6405 128.173 40.9942C128.357 41.3479 128.614 41.6206 128.947 41.8124C129.279 42.0041 129.673 42.1 130.129 42.1C130.432 42.1 130.709 42.0574 130.96 41.9722C131.212 41.8869 131.427 41.7591 131.606 41.5886C131.785 41.4182 131.921 41.2094 132.015 40.9622L134.533 41.1284C134.406 41.7335 134.143 42.2619 133.747 42.7136C133.355 43.1611 132.848 43.5105 132.226 43.7619C131.608 44.0091 130.894 44.1327 130.085 44.1327ZM143.334 44.1263C142.707 44.1263 142.149 44.0176 141.659 43.8003C141.169 43.5787 140.781 43.2527 140.496 42.8223C140.214 42.3877 140.074 41.8465 140.074 41.1987C140.074 40.6533 140.174 40.1952 140.374 39.8244C140.574 39.4537 140.847 39.1554 141.192 38.9296C141.537 38.7037 141.93 38.5332 142.368 38.4182C142.812 38.3031 143.276 38.2222 143.762 38.1753C144.333 38.1156 144.793 38.0602 145.143 38.0091C145.492 37.9537 145.746 37.8727 145.903 37.7662C146.061 37.6597 146.14 37.502 146.14 37.2932V37.2548C146.14 36.85 146.012 36.5368 145.756 36.3152C145.505 36.0936 145.147 35.9828 144.682 35.9828C144.192 35.9828 143.802 36.0915 143.513 36.3088C143.223 36.5219 143.031 36.7903 142.937 37.1142L140.419 36.9097C140.547 36.3131 140.798 35.7975 141.173 35.3628C141.548 34.9239 142.032 34.5872 142.624 34.3528C143.221 34.1142 143.911 33.9949 144.695 33.9949C145.241 33.9949 145.763 34.0588 146.261 34.1867C146.764 34.3145 147.209 34.5127 147.597 34.7811C147.989 35.0496 148.298 35.3948 148.524 35.8166C148.75 36.2342 148.863 36.735 148.863 37.3188V43.9409H146.28V42.5794H146.204C146.046 42.8862 145.835 43.1568 145.571 43.3912C145.307 43.6213 144.989 43.8024 144.618 43.9345C144.248 44.0624 143.819 44.1263 143.334 44.1263ZM144.113 42.247C144.514 42.247 144.868 42.1682 145.175 42.0105C145.481 41.8486 145.722 41.6313 145.897 41.3585C146.072 41.0858 146.159 40.7769 146.159 40.4317V39.3898C146.074 39.4452 145.956 39.4963 145.807 39.5432C145.662 39.5858 145.498 39.6263 145.315 39.6646C145.132 39.6987 144.949 39.7307 144.765 39.7605C144.582 39.7861 144.416 39.8095 144.267 39.8308C143.947 39.8777 143.668 39.9523 143.43 40.0546C143.191 40.1568 143.006 40.2953 142.873 40.47C142.741 40.6405 142.675 40.8536 142.675 41.1092C142.675 41.48 142.809 41.7634 143.078 41.9594C143.351 42.1511 143.696 42.247 144.113 42.247ZM153.698 38.2648V43.9409H150.975V34.1227H153.57V35.855H153.686C153.903 35.284 154.267 34.8323 154.779 34.4999C155.29 34.1632 155.91 33.9949 156.639 33.9949C157.32 33.9949 157.915 34.144 158.422 34.4423C158.929 34.7406 159.323 35.1668 159.605 35.7207C159.886 36.2705 160.026 36.9267 160.026 37.6895V43.9409H157.303V38.1753C157.308 37.5744 157.154 37.1057 156.843 36.769C156.532 36.4281 156.104 36.2577 155.558 36.2577C155.192 36.2577 154.868 36.3365 154.587 36.4942C154.31 36.6519 154.093 36.882 153.935 37.1845C153.781 37.4828 153.703 37.8429 153.698 38.2648ZM163.502 47.6227C163.157 47.6227 162.833 47.595 162.531 47.5396C162.232 47.4885 161.985 47.4225 161.789 47.3415L162.403 45.3088C162.722 45.4068 163.01 45.4601 163.266 45.4686C163.526 45.4771 163.749 45.4175 163.937 45.2896C164.129 45.1618 164.284 44.9445 164.403 44.6377L164.563 44.2222L161.041 34.1227H163.905L165.938 41.333H166.04L168.092 34.1227H170.974L167.158 45.002C166.975 45.5304 166.726 45.9906 166.411 46.3827C166.099 46.779 165.705 47.0837 165.228 47.2967C164.751 47.5141 164.175 47.6227 163.502 47.6227ZM177.59 34.1227V36.1682H171.678V34.1227H177.59ZM173.02 31.7705H175.743V40.9239C175.743 41.1753 175.781 41.3713 175.858 41.5119C175.935 41.6483 176.041 41.7442 176.178 41.7996C176.318 41.855 176.48 41.8827 176.663 41.8827C176.791 41.8827 176.919 41.872 177.047 41.8507C177.175 41.8252 177.273 41.806 177.341 41.7932L177.769 43.8195C177.633 43.8621 177.441 43.9111 177.194 43.9665C176.947 44.0261 176.646 44.0624 176.293 44.0752C175.636 44.1007 175.061 44.0134 174.567 43.8131C174.077 43.6128 173.695 43.3017 173.423 42.8798C173.15 42.458 173.016 41.9253 173.02 41.2818V31.7705ZM182.298 38.2648V43.9409H179.575V30.85H182.221V35.855H182.336C182.558 35.2754 182.916 34.8216 183.41 34.4935C183.904 34.1611 184.525 33.9949 185.27 33.9949C185.952 33.9949 186.547 34.144 187.054 34.4423C187.565 34.7364 187.961 35.1604 188.243 35.7144C188.528 36.2641 188.669 36.9225 188.664 37.6895V43.9409H185.941V38.1753C185.946 37.5702 185.792 37.0993 185.481 36.7627C185.174 36.426 184.744 36.2577 184.19 36.2577C183.819 36.2577 183.491 36.3365 183.206 36.4942C182.924 36.6519 182.703 36.882 182.541 37.1845C182.383 37.4828 182.302 37.8429 182.298 38.2648ZM190.807 43.9409V34.1227H193.53V43.9409H190.807ZM192.175 32.8571C191.77 32.8571 191.423 32.7229 191.133 32.4544C190.848 32.1817 190.705 31.8557 190.705 31.4764C190.705 31.1014 190.848 30.7797 191.133 30.5112C191.423 30.2385 191.77 30.1021 192.175 30.1021C192.58 30.1021 192.925 30.2385 193.211 30.5112C193.501 30.7797 193.645 31.1014 193.645 31.4764C193.645 31.8557 193.501 32.1817 193.211 32.4544C192.925 32.7229 192.58 32.8571 192.175 32.8571ZM198.435 38.2648V43.9409H195.712V34.1227H198.307V35.855H198.422C198.639 35.284 199.004 34.8323 199.515 34.4999C200.026 34.1632 200.646 33.9949 201.375 33.9949C202.057 33.9949 202.651 34.144 203.158 34.4423C203.665 34.7406 204.06 35.1668 204.341 35.7207C204.622 36.2705 204.763 36.9267 204.763 37.6895V43.9409H202.04V38.1753C202.044 37.5744 201.891 37.1057 201.58 36.769C201.268 36.4281 200.84 36.2577 200.295 36.2577C199.928 36.2577 199.604 36.3365 199.323 36.4942C199.046 36.6519 198.829 36.882 198.671 37.1845C198.518 37.4828 198.439 37.8429 198.435 38.2648ZM211.332 47.8273C210.45 47.8273 209.694 47.7058 209.063 47.4629C208.437 47.2243 207.938 46.8983 207.567 46.485C207.197 46.0716 206.956 45.6071 206.845 45.0915L209.363 44.7527C209.44 44.9487 209.562 45.132 209.728 45.3024C209.894 45.4729 210.113 45.6092 210.386 45.7115C210.663 45.818 211 45.8713 211.396 45.8713C211.988 45.8713 212.476 45.7264 212.86 45.4367C213.248 45.1511 213.442 44.6717 213.442 43.9984V42.2023H213.327C213.207 42.475 213.028 42.7328 212.79 42.9757C212.551 43.2186 212.244 43.4168 211.869 43.5702C211.494 43.7236 211.047 43.8003 210.527 43.8003C209.79 43.8003 209.118 43.6298 208.513 43.2889C207.912 42.9438 207.433 42.4175 207.075 41.7101C206.721 40.9984 206.545 40.0993 206.545 39.0127C206.545 37.9004 206.726 36.9715 207.088 36.2257C207.45 35.48 207.932 34.9217 208.532 34.551C209.138 34.1803 209.8 33.9949 210.52 33.9949C211.07 33.9949 211.53 34.0886 211.901 34.2761C212.272 34.4594 212.57 34.6895 212.796 34.9665C213.026 35.2392 213.203 35.5077 213.327 35.7719H213.429V34.1227H216.133V44.0368C216.133 44.872 215.928 45.5709 215.519 46.1334C215.11 46.6959 214.543 47.1178 213.819 47.399C213.099 47.6845 212.27 47.8273 211.332 47.8273ZM211.39 41.7548C211.829 41.7548 212.199 41.6462 212.502 41.4288C212.809 41.2073 213.043 40.8919 213.205 40.4828C213.371 40.0695 213.454 39.5752 213.454 38.9999C213.454 38.4246 213.373 37.926 213.211 37.5041C213.05 37.078 212.815 36.7477 212.508 36.5134C212.202 36.279 211.829 36.1618 211.39 36.1618C210.942 36.1618 210.565 36.2832 210.258 36.5261C209.952 36.7648 209.719 37.0972 209.562 37.5233C209.404 37.9494 209.325 38.4416 209.325 38.9999C209.325 39.5666 209.404 40.0567 209.562 40.47C209.724 40.8791 209.956 41.1966 210.258 41.4225C210.565 41.644 210.942 41.7548 211.39 41.7548ZM227.688 34.1227V36.1682H221.775V34.1227H227.688ZM223.118 31.7705H225.841V40.9239C225.841 41.1753 225.879 41.3713 225.956 41.5119C226.032 41.6483 226.139 41.7442 226.275 41.7996C226.416 41.855 226.578 41.8827 226.761 41.8827C226.889 41.8827 227.017 41.872 227.145 41.8507C227.272 41.8252 227.37 41.806 227.439 41.7932L227.867 43.8195C227.73 43.8621 227.539 43.9111 227.292 43.9665C227.044 44.0261 226.744 44.0624 226.39 44.0752C225.734 44.1007 225.159 44.0134 224.664 43.8131C224.174 43.6128 223.793 43.3017 223.52 42.8798C223.248 42.458 223.113 41.9253 223.118 41.2818V31.7705ZM233.792 44.1327C232.799 44.1327 231.941 43.9217 231.216 43.4999C230.496 43.0737 229.94 42.4814 229.548 41.7229C229.156 40.9601 228.96 40.0759 228.96 39.0702C228.96 38.056 229.156 37.1696 229.548 36.4111C229.94 35.6483 230.496 35.056 231.216 34.6341C231.941 34.208 232.799 33.9949 233.792 33.9949C234.785 33.9949 235.642 34.208 236.362 34.6341C237.086 35.056 237.645 35.6483 238.037 36.4111C238.429 37.1696 238.625 38.056 238.625 39.0702C238.625 40.0759 238.429 40.9601 238.037 41.7229C237.645 42.4814 237.086 43.0737 236.362 43.4999C235.642 43.9217 234.785 44.1327 233.792 44.1327ZM233.805 42.0233C234.257 42.0233 234.634 41.8955 234.936 41.6398C235.239 41.3798 235.467 41.0261 235.62 40.5787C235.778 40.1313 235.857 39.622 235.857 39.051C235.857 38.48 235.778 37.9707 235.62 37.5233C235.467 37.0759 235.239 36.7222 234.936 36.4622C234.634 36.2023 234.257 36.0723 233.805 36.0723C233.349 36.0723 232.966 36.2023 232.654 36.4622C232.348 36.7222 232.115 37.0759 231.958 37.5233C231.804 37.9707 231.728 38.48 231.728 39.051C231.728 39.622 231.804 40.1313 231.958 40.5787C232.115 41.0261 232.348 41.3798 232.654 41.6398C232.966 41.8955 233.349 42.0233 233.805 42.0233ZM244.612 43.9409V30.85H247.335V35.7719H247.419C247.538 35.5077 247.71 35.2392 247.936 34.9665C248.166 34.6895 248.465 34.4594 248.831 34.2761C249.202 34.0886 249.662 33.9949 250.212 33.9949C250.928 33.9949 251.588 34.1824 252.193 34.5574C252.798 34.9281 253.282 35.4885 253.644 36.2385C254.007 36.9842 254.188 37.9196 254.188 39.0446C254.188 40.1398 254.011 41.0645 253.657 41.8188C253.308 42.5688 252.83 43.1377 252.225 43.5254C251.624 43.909 250.951 44.1007 250.205 44.1007C249.677 44.1007 249.227 44.0134 248.857 43.8386C248.49 43.6639 248.19 43.4445 247.955 43.1803C247.721 42.9118 247.542 42.6412 247.419 42.3685H247.297V43.9409H244.612ZM247.278 39.0318C247.278 39.6156 247.359 40.1249 247.521 40.5595C247.683 40.9942 247.917 41.333 248.224 41.5759C248.531 41.8145 248.904 41.9338 249.343 41.9338C249.786 41.9338 250.161 41.8124 250.468 41.5695C250.774 41.3223 251.007 40.9814 251.164 40.5467C251.326 40.1078 251.407 39.6028 251.407 39.0318C251.407 38.4651 251.328 37.9665 251.171 37.5361C251.013 37.1057 250.781 36.769 250.474 36.5261C250.167 36.2832 249.79 36.1618 249.343 36.1618C248.899 36.1618 248.524 36.279 248.218 36.5134C247.915 36.7477 247.683 37.0801 247.521 37.5105C247.359 37.9409 247.278 38.448 247.278 39.0318ZM260.479 44.1327C259.469 44.1327 258.6 43.9281 257.871 43.519C257.147 43.1057 256.588 42.5219 256.196 41.7676C255.804 41.0091 255.608 40.1121 255.608 39.0766C255.608 38.0666 255.804 37.1803 256.196 36.4175C256.588 35.6547 257.14 35.0602 257.852 34.6341C258.568 34.208 259.407 33.9949 260.37 33.9949C261.018 33.9949 261.621 34.0993 262.179 34.3081C262.742 34.5127 263.232 34.8216 263.65 35.235C264.071 35.6483 264.4 36.1682 264.634 36.7946C264.868 37.4168 264.985 38.1455 264.985 38.9807V39.7286H256.695V38.0411H262.422C262.422 37.649 262.337 37.3017 262.167 36.9992C261.996 36.6966 261.76 36.4601 261.457 36.2896C261.159 36.1149 260.811 36.0276 260.415 36.0276C260.002 36.0276 259.635 36.1234 259.316 36.3152C259 36.5027 258.753 36.7563 258.574 37.0759C258.395 37.3912 258.304 37.7428 258.299 38.1305V39.735C258.299 40.2207 258.389 40.6405 258.568 40.9942C258.751 41.3479 259.009 41.6206 259.341 41.8124C259.674 42.0041 260.068 42.1 260.524 42.1C260.826 42.1 261.103 42.0574 261.355 41.9722C261.606 41.8869 261.821 41.7591 262 41.5886C262.179 41.4182 262.316 41.2094 262.409 40.9622L264.928 41.1284C264.8 41.7335 264.538 42.2619 264.142 42.7136C263.75 43.1611 263.243 43.5105 262.62 43.7619C262.002 44.0091 261.289 44.1327 260.479 44.1327ZM271.199 44.1327C270.193 44.1327 269.328 43.9196 268.603 43.4935C267.883 43.0631 267.329 42.4665 266.941 41.7037C266.558 40.9409 266.366 40.0631 266.366 39.0702C266.366 38.0645 266.56 37.1824 266.948 36.4239C267.34 35.6611 267.896 35.0666 268.616 34.6405C269.336 34.2101 270.193 33.9949 271.186 33.9949C272.042 33.9949 272.792 34.1504 273.436 34.4615C274.079 34.7726 274.588 35.2094 274.963 35.7719C275.338 36.3344 275.545 36.9949 275.583 37.7534H273.014C272.941 37.2634 272.75 36.8692 272.439 36.5709C272.132 36.2683 271.729 36.1171 271.23 36.1171C270.809 36.1171 270.44 36.2321 270.125 36.4622C269.814 36.6881 269.571 37.0183 269.396 37.453C269.221 37.8877 269.134 38.4139 269.134 39.0318C269.134 39.6582 269.219 40.1909 269.39 40.6298C269.564 41.0688 269.809 41.4033 270.125 41.6334C270.44 41.8635 270.809 41.9786 271.23 41.9786C271.542 41.9786 271.821 41.9146 272.068 41.7868C272.319 41.659 272.526 41.4736 272.688 41.2307C272.854 40.9835 272.963 40.6874 273.014 40.3422H275.583C275.541 41.0922 275.336 41.7527 274.97 42.3237C274.608 42.8905 274.107 43.3337 273.468 43.6533C272.828 43.9729 272.072 44.1327 271.199 44.1327ZM281.763 44.1327C280.77 44.1327 279.911 43.9217 279.187 43.4999C278.467 43.0737 277.911 42.4814 277.519 41.7229C277.127 40.9601 276.931 40.0759 276.931 39.0702C276.931 38.056 277.127 37.1696 277.519 36.4111C277.911 35.6483 278.467 35.056 279.187 34.6341C279.911 34.208 280.77 33.9949 281.763 33.9949C282.756 33.9949 283.612 34.208 284.333 34.6341C285.057 35.056 285.615 35.6483 286.007 36.4111C286.399 37.1696 286.595 38.056 286.595 39.0702C286.595 40.0759 286.399 40.9601 286.007 41.7229C285.615 42.4814 285.057 43.0737 284.333 43.4999C283.612 43.9217 282.756 44.1327 281.763 44.1327ZM281.776 42.0233C282.227 42.0233 282.605 41.8955 282.907 41.6398C283.21 41.3798 283.438 41.0261 283.591 40.5787C283.749 40.1313 283.828 39.622 283.828 39.051C283.828 38.48 283.749 37.9707 283.591 37.5233C283.438 37.0759 283.21 36.7222 282.907 36.4622C282.605 36.2023 282.227 36.0723 281.776 36.0723C281.32 36.0723 280.936 36.2023 280.625 36.4622C280.318 36.7222 280.086 37.0759 279.928 37.5233C279.775 37.9707 279.698 38.48 279.698 39.051C279.698 39.622 279.775 40.1313 279.928 40.5787C280.086 41.0261 280.318 41.3798 280.625 41.6398C280.936 41.8955 281.32 42.0233 281.776 42.0233ZM288.366 43.9409V34.1227H290.961V35.855H291.076C291.281 35.2797 291.622 34.8259 292.099 34.4935C292.576 34.1611 293.147 33.9949 293.812 33.9949C294.485 33.9949 295.058 34.1632 295.531 34.4999C296.004 34.8323 296.32 35.284 296.477 35.855H296.58C296.78 35.2925 297.142 34.8429 297.666 34.5063C298.195 34.1653 298.819 33.9949 299.539 33.9949C300.455 33.9949 301.199 34.2868 301.77 34.8706C302.345 35.4502 302.633 36.2726 302.633 37.3379V43.9409H299.916V37.8749C299.916 37.3294 299.771 36.9203 299.482 36.6476C299.192 36.3749 298.83 36.2385 298.395 36.2385C297.901 36.2385 297.515 36.3962 297.238 36.7115C296.961 37.0226 296.823 37.4338 296.823 37.9452V43.9409H294.183V37.8173C294.183 37.3358 294.044 36.9523 293.767 36.6668C293.494 36.3813 293.134 36.2385 292.687 36.2385C292.384 36.2385 292.112 36.3152 291.869 36.4686C291.63 36.6178 291.441 36.8287 291.3 37.1014C291.159 37.3699 291.089 37.6852 291.089 38.0475V43.9409H288.366ZM309.258 44.1327C308.248 44.1327 307.379 43.9281 306.65 43.519C305.926 43.1057 305.368 42.5219 304.976 41.7676C304.584 41.0091 304.388 40.1121 304.388 39.0766C304.388 38.0666 304.584 37.1803 304.976 36.4175C305.368 35.6547 305.92 35.0602 306.631 34.6341C307.347 34.208 308.187 33.9949 309.15 33.9949C309.797 33.9949 310.4 34.0993 310.959 34.3081C311.521 34.5127 312.011 34.8216 312.429 35.235C312.851 35.6483 313.179 36.1682 313.413 36.7946C313.648 37.4168 313.765 38.1455 313.765 38.9807V39.7286H305.474V38.0411H311.202C311.202 37.649 311.116 37.3017 310.946 36.9992C310.775 36.6966 310.539 36.4601 310.236 36.2896C309.938 36.1149 309.591 36.0276 309.194 36.0276C308.781 36.0276 308.415 36.1234 308.095 36.3152C307.78 36.5027 307.532 36.7563 307.354 37.0759C307.175 37.3912 307.083 37.7428 307.079 38.1305V39.735C307.079 40.2207 307.168 40.6405 307.347 40.9942C307.53 41.3479 307.788 41.6206 308.121 41.8124C308.453 42.0041 308.847 42.1 309.303 42.1C309.606 42.1 309.883 42.0574 310.134 41.9722C310.385 41.8869 310.601 41.7591 310.78 41.5886C310.959 41.4182 311.095 41.2094 311.189 40.9622L313.707 41.1284C313.579 41.7335 313.317 42.2619 312.921 42.7136C312.529 43.1611 312.022 43.5105 311.4 43.7619C310.782 44.0091 310.068 44.1327 309.258 44.1327ZM322.507 44.1263C321.881 44.1263 321.323 44.0176 320.833 43.8003C320.343 43.5787 319.955 43.2527 319.669 42.8223C319.388 42.3877 319.248 41.8465 319.248 41.1987C319.248 40.6533 319.348 40.1952 319.548 39.8244C319.748 39.4537 320.021 39.1554 320.366 38.9296C320.711 38.7037 321.103 38.5332 321.542 38.4182C321.985 38.3031 322.45 38.2222 322.936 38.1753C323.507 38.1156 323.967 38.0602 324.316 38.0091C324.666 37.9537 324.919 37.8727 325.077 37.7662C325.235 37.6597 325.314 37.502 325.314 37.2932V37.2548C325.314 36.85 325.186 36.5368 324.93 36.3152C324.679 36.0936 324.321 35.9828 323.856 35.9828C323.366 35.9828 322.976 36.0915 322.686 36.3088C322.397 36.5219 322.205 36.7903 322.111 37.1142L319.593 36.9097C319.721 36.3131 319.972 35.7975 320.347 35.3628C320.722 34.9239 321.206 34.5872 321.798 34.3528C322.395 34.1142 323.085 33.9949 323.869 33.9949C324.414 33.9949 324.936 34.0588 325.435 34.1867C325.938 34.3145 326.383 34.5127 326.771 34.7811C327.163 35.0496 327.472 35.3948 327.698 35.8166C327.924 36.2342 328.037 36.735 328.037 37.3188V43.9409H325.454V42.5794H325.377C325.22 42.8862 325.009 43.1568 324.745 43.3912C324.48 43.6213 324.163 43.8024 323.792 43.9345C323.422 44.0624 322.993 44.1263 322.507 44.1263ZM323.287 42.247C323.688 42.247 324.042 42.1682 324.348 42.0105C324.655 41.8486 324.896 41.6313 325.071 41.3585C325.245 41.0858 325.333 40.7769 325.333 40.4317V39.3898C325.248 39.4452 325.13 39.4963 324.981 39.5432C324.836 39.5858 324.672 39.6263 324.489 39.6646C324.306 39.6987 324.123 39.7307 323.939 39.7605C323.756 39.7861 323.59 39.8095 323.441 39.8308C323.121 39.8777 322.842 39.9523 322.603 40.0546C322.365 40.1568 322.179 40.2953 322.047 40.47C321.915 40.6405 321.849 40.8536 321.849 41.1092C321.849 41.48 321.983 41.7634 322.252 41.9594C322.525 42.1511 322.87 42.247 323.287 42.247ZM332.872 38.2648V43.9409H330.149V34.1227H332.744V35.855H332.859C333.077 35.284 333.441 34.8323 333.952 34.4999C334.464 34.1632 335.084 33.9949 335.812 33.9949C336.494 33.9949 337.089 34.144 337.596 34.4423C338.103 34.7406 338.497 35.1668 338.778 35.7207C339.06 36.2705 339.2 36.9267 339.2 37.6895V43.9409H336.477V38.1753C336.482 37.5744 336.328 37.1057 336.017 36.769C335.706 36.4281 335.278 36.2577 334.732 36.2577C334.366 36.2577 334.042 36.3365 333.761 36.4942C333.484 36.6519 333.266 36.882 333.109 37.1845C332.955 37.4828 332.876 37.8429 332.872 38.2648ZM348.312 44.1263C347.686 44.1263 347.127 44.0176 346.637 43.8003C346.147 43.5787 345.76 43.2527 345.474 42.8223C345.193 42.3877 345.052 41.8465 345.052 41.1987C345.052 40.6533 345.152 40.1952 345.353 39.8244C345.553 39.4537 345.826 39.1554 346.171 38.9296C346.516 38.7037 346.908 38.5332 347.347 38.4182C347.79 38.3031 348.255 38.2222 348.74 38.1753C349.311 38.1156 349.772 38.0602 350.121 38.0091C350.471 37.9537 350.724 37.8727 350.882 37.7662C351.039 37.6597 351.118 37.502 351.118 37.2932V37.2548C351.118 36.85 350.99 36.5368 350.735 36.3152C350.483 36.0936 350.125 35.9828 349.661 35.9828C349.171 35.9828 348.781 36.0915 348.491 36.3088C348.201 36.5219 348.01 36.7903 347.916 37.1142L345.397 36.9097C345.525 36.3131 345.777 35.7975 346.152 35.3628C346.527 34.9239 347.01 34.5872 347.603 34.3528C348.199 34.1142 348.89 33.9949 349.674 33.9949C350.219 33.9949 350.741 34.0588 351.24 34.1867C351.743 34.3145 352.188 34.5127 352.576 34.7811C352.968 35.0496 353.277 35.3948 353.502 35.8166C353.728 36.2342 353.841 36.735 353.841 37.3188V43.9409H351.259V42.5794H351.182C351.025 42.8862 350.814 43.1568 350.549 43.3912C350.285 43.6213 349.968 43.8024 349.597 43.9345C349.226 44.0624 348.798 44.1263 348.312 44.1263ZM349.092 42.247C349.493 42.247 349.846 42.1682 350.153 42.0105C350.46 41.8486 350.701 41.6313 350.875 41.3585C351.05 41.0858 351.137 40.7769 351.137 40.4317V39.3898C351.052 39.4452 350.935 39.4963 350.786 39.5432C350.641 39.5858 350.477 39.6263 350.294 39.6646C350.11 39.6987 349.927 39.7307 349.744 39.7605C349.561 39.7861 349.395 39.8095 349.245 39.8308C348.926 39.8777 348.647 39.9523 348.408 40.0546C348.169 40.1568 347.984 40.2953 347.852 40.47C347.72 40.6405 347.654 40.8536 347.654 41.1092C347.654 41.48 347.788 41.7634 348.056 41.9594C348.329 42.1511 348.674 42.247 349.092 42.247ZM361.234 34.1227V36.1682H355.174V34.1227H361.234ZM356.561 43.9409V33.4132C356.561 32.7016 356.7 32.1114 356.977 31.6426C357.258 31.1739 357.641 30.8223 358.127 30.5879C358.613 30.3536 359.165 30.2364 359.783 30.2364C360.2 30.2364 360.582 30.2683 360.927 30.3323C361.276 30.3962 361.536 30.4537 361.707 30.5048L361.221 32.5503C361.114 32.5162 360.982 32.4842 360.825 32.4544C360.671 32.4246 360.513 32.4097 360.352 32.4097C359.951 32.4097 359.672 32.5034 359.514 32.6909C359.357 32.8742 359.278 33.132 359.278 33.4644V43.9409H356.561ZM368.177 34.1227V36.1682H362.117V34.1227H368.177ZM363.504 43.9409V33.4132C363.504 32.7016 363.643 32.1114 363.92 31.6426C364.201 31.1739 364.585 30.8223 365.07 30.5879C365.556 30.3536 366.108 30.2364 366.726 30.2364C367.144 30.2364 367.525 30.2683 367.87 30.3323C368.22 30.3962 368.48 30.4537 368.65 30.5048L368.164 32.5503C368.058 32.5162 367.926 32.4842 367.768 32.4544C367.615 32.4246 367.457 32.4097 367.295 32.4097C366.894 32.4097 366.615 32.5034 366.458 32.6909C366.3 32.8742 366.221 33.132 366.221 33.4644V43.9409H363.504ZM369.841 43.9409V34.1227H372.564V43.9409H369.841ZM371.208 32.8571C370.804 32.8571 370.456 32.7229 370.167 32.4544C369.881 32.1817 369.738 31.8557 369.738 31.4764C369.738 31.1014 369.881 30.7797 370.167 30.5112C370.456 30.2385 370.804 30.1021 371.208 30.1021C371.613 30.1021 371.958 30.2385 372.244 30.5112C372.534 30.7797 372.679 31.1014 372.679 31.4764C372.679 31.8557 372.534 32.1817 372.244 32.4544C371.958 32.7229 371.613 32.8571 371.208 32.8571ZM377.468 30.85V43.9409H374.745V30.85H377.468ZM379.649 43.9409V34.1227H382.372V43.9409H379.649ZM381.017 32.8571C380.612 32.8571 380.265 32.7229 379.975 32.4544C379.69 32.1817 379.547 31.8557 379.547 31.4764C379.547 31.1014 379.69 30.7797 379.975 30.5112C380.265 30.2385 380.612 30.1021 381.017 30.1021C381.422 30.1021 381.767 30.2385 382.053 30.5112C382.342 30.7797 382.487 31.1014 382.487 31.4764C382.487 31.8557 382.342 32.1817 382.053 32.4544C381.767 32.7229 381.422 32.8571 381.017 32.8571ZM387.353 44.1263C386.727 44.1263 386.169 44.0176 385.678 43.8003C385.188 43.5787 384.801 43.2527 384.515 42.8223C384.234 42.3877 384.093 41.8465 384.093 41.1987C384.093 40.6533 384.193 40.1952 384.394 39.8244C384.594 39.4537 384.867 39.1554 385.212 38.9296C385.557 38.7037 385.949 38.5332 386.388 38.4182C386.831 38.3031 387.296 38.2222 387.781 38.1753C388.352 38.1156 388.813 38.0602 389.162 38.0091C389.512 37.9537 389.765 37.8727 389.923 37.7662C390.08 37.6597 390.159 37.502 390.159 37.2932V37.2548C390.159 36.85 390.031 36.5368 389.776 36.3152C389.524 36.0936 389.166 35.9828 388.702 35.9828C388.212 35.9828 387.822 36.0915 387.532 36.3088C387.242 36.5219 387.051 36.7903 386.957 37.1142L384.438 36.9097C384.566 36.3131 384.818 35.7975 385.193 35.3628C385.568 34.9239 386.051 34.5872 386.644 34.3528C387.24 34.1142 387.931 33.9949 388.715 33.9949C389.26 33.9949 389.782 34.0588 390.281 34.1867C390.784 34.3145 391.229 34.5127 391.617 34.7811C392.009 35.0496 392.318 35.3948 392.544 35.8166C392.769 36.2342 392.882 36.735 392.882 37.3188V43.9409H390.3V42.5794H390.223C390.066 42.8862 389.855 43.1568 389.59 43.3912C389.326 43.6213 389.009 43.8024 388.638 43.9345C388.267 44.0624 387.839 44.1263 387.353 44.1263ZM388.133 42.247C388.534 42.247 388.887 42.1682 389.194 42.0105C389.501 41.8486 389.742 41.6313 389.916 41.3585C390.091 41.0858 390.178 40.7769 390.178 40.4317V39.3898C390.093 39.4452 389.976 39.4963 389.827 39.5432C389.682 39.5858 389.518 39.6263 389.335 39.6646C389.151 39.6987 388.968 39.7307 388.785 39.7605C388.602 39.7861 388.436 39.8095 388.286 39.8308C387.967 39.8777 387.688 39.9523 387.449 40.0546C387.21 40.1568 387.025 40.2953 386.893 40.47C386.761 40.6405 386.695 40.8536 386.695 41.1092C386.695 41.48 386.829 41.7634 387.097 41.9594C387.37 42.1511 387.715 42.247 388.133 42.247ZM400.217 34.1227V36.1682H394.305V34.1227H400.217ZM395.647 31.7705H398.37V40.9239C398.37 41.1753 398.408 41.3713 398.485 41.5119C398.562 41.6483 398.668 41.7442 398.805 41.7996C398.945 41.855 399.107 41.8827 399.29 41.8827C399.418 41.8827 399.546 41.872 399.674 41.8507C399.802 41.8252 399.9 41.806 399.968 41.7932L400.396 43.8195C400.26 43.8621 400.068 43.9111 399.821 43.9665C399.574 44.0261 399.273 44.0624 398.92 44.0752C398.263 44.1007 397.688 44.0134 397.194 43.8131C396.704 43.6128 396.322 43.3017 396.05 42.8798C395.777 42.458 395.643 41.9253 395.647 41.2818V31.7705ZM406.36 44.1327C405.35 44.1327 404.481 43.9281 403.752 43.519C403.028 43.1057 402.469 42.5219 402.077 41.7676C401.685 41.0091 401.489 40.1121 401.489 39.0766C401.489 38.0666 401.685 37.1803 402.077 36.4175C402.469 35.6547 403.021 35.0602 403.733 34.6341C404.449 34.208 405.288 33.9949 406.251 33.9949C406.899 33.9949 407.502 34.0993 408.06 34.3081C408.623 34.5127 409.113 34.8216 409.53 35.235C409.952 35.6483 410.28 36.1682 410.515 36.7946C410.749 37.4168 410.866 38.1455 410.866 38.9807V39.7286H402.576V38.0411H408.303C408.303 37.649 408.218 37.3017 408.047 36.9992C407.877 36.6966 407.64 36.4601 407.338 36.2896C407.04 36.1149 406.692 36.0276 406.296 36.0276C405.883 36.0276 405.516 36.1234 405.197 36.3152C404.881 36.5027 404.634 36.7563 404.455 37.0759C404.276 37.3912 404.184 37.7428 404.18 38.1305V39.735C404.18 40.2207 404.27 40.6405 404.449 40.9942C404.632 41.3479 404.89 41.6206 405.222 41.8124C405.555 42.0041 405.949 42.1 406.405 42.1C406.707 42.1 406.984 42.0574 407.236 41.9722C407.487 41.8869 407.702 41.7591 407.881 41.5886C408.06 41.4182 408.197 41.2094 408.29 40.9622L410.809 41.1284C410.681 41.7335 410.419 42.2619 410.023 42.7136C409.631 43.1611 409.123 43.5105 408.501 43.7619C407.883 44.0091 407.17 44.1327 406.36 44.1327ZM414.983 40.0162V39.7989C414.987 39.0531 415.053 38.4587 415.181 38.0155C415.313 37.5723 415.505 37.2144 415.756 36.9416C416.008 36.6689 416.31 36.4217 416.664 36.2002C416.928 36.0297 417.165 35.8528 417.373 35.6696C417.582 35.4864 417.748 35.284 417.872 35.0624C417.996 34.8365 418.057 34.5851 418.057 34.3081C418.057 34.0141 417.987 33.7563 417.846 33.5347C417.706 33.3131 417.516 33.1426 417.278 33.0233C417.043 32.904 416.783 32.8443 416.498 32.8443C416.221 32.8443 415.959 32.9061 415.711 33.0297C415.464 33.149 415.262 33.328 415.104 33.5666C414.947 33.801 414.861 34.0929 414.849 34.4423H412.241C412.262 33.5901 412.466 32.8869 412.854 32.333C413.242 31.7747 413.756 31.3592 414.395 31.0865C415.034 30.8095 415.739 30.671 416.51 30.671C417.358 30.671 418.108 30.8117 418.76 31.0929C419.412 31.3699 419.924 31.7726 420.295 32.301C420.665 32.8294 420.851 33.4665 420.851 34.2122C420.851 34.7108 420.768 35.154 420.601 35.5418C420.439 35.9253 420.211 36.2662 419.917 36.5645C419.623 36.8585 419.276 37.1249 418.876 37.3635C418.539 37.5638 418.262 37.7726 418.045 37.9899C417.831 38.2073 417.672 38.4587 417.565 38.7442C417.463 39.0297 417.41 39.3813 417.405 39.7989V40.0162H414.983ZM416.248 44.1071C415.822 44.1071 415.458 43.958 415.155 43.6597C414.857 43.3571 414.71 42.9949 414.714 42.573C414.71 42.1554 414.857 41.7975 415.155 41.4992C415.458 41.2009 415.822 41.0517 416.248 41.0517C416.653 41.0517 417.009 41.2009 417.316 41.4992C417.623 41.7975 417.778 42.1554 417.782 42.573C417.778 42.8543 417.704 43.1121 417.559 43.3465C417.418 43.5766 417.233 43.7619 417.003 43.9026C416.773 44.0389 416.521 44.1071 416.248 44.1071Z" fill="#4A4A4A"/>
<path fill-rule="evenodd" clip-rule="evenodd" d="M1108 28.1909C1108.2 28.1909 1108.39 28.2699 1108.53 28.4106C1108.67 28.5512 1108.75 28.742 1108.75 28.9409V36.1909H1116C1116.2 36.1909 1116.39 36.2699 1116.53 36.4106C1116.67 36.5512 1116.75 36.742 1116.75 36.9409C1116.75 37.1398 1116.67 37.3306 1116.53 37.4712C1116.39 37.6119 1116.2 37.6909 1116 37.6909H1108.75V44.9409C1108.75 45.1398 1108.67 45.3306 1108.53 45.4712C1108.39 45.6119 1108.2 45.6909 1108 45.6909C1107.8 45.6909 1107.61 45.6119 1107.47 45.4712C1107.33 45.3306 1107.25 45.1398 1107.25 44.9409V37.6909H1100C1099.8 37.6909 1099.61 37.6119 1099.47 37.4712C1099.33 37.3306 1099.25 37.1398 1099.25 36.9409C1099.25 36.742 1099.33 36.5512 1099.47 36.4106C1099.61 36.2699 1099.8 36.1909 1100 36.1909H1107.25V28.9409C1107.25 28.742 1107.33 28.5512 1107.47 28.4106C1107.61 28.2699 1107.8 28.1909 1108 28.1909Z" fill="black"/>
</svg>
