<svg width="18" height="18" viewBox="0 0 18 18" fill="none" xmlns="http://www.w3.org/2000/svg">
<path d="M8.98927 0C10.2336 0 11.4029 0.235995 12.497 0.707986C13.5912 1.17998 14.5459 1.8236 15.3611 2.63886C16.1764 3.45411 16.82 4.40524 17.292 5.49225C17.764 6.57926 18 7.74493 18 8.98927C18 10.2336 17.764 11.4029 17.292 12.497C16.82 13.5912 16.1764 14.5459 15.3611 15.3611C14.5459 16.1764 13.5912 16.82 12.497 17.292C11.4029 17.764 10.2336 18 8.98927 18C7.74493 18 6.57926 17.764 5.49225 17.292C4.40524 16.82 3.45411 16.1764 2.63886 15.3611C1.8236 14.5459 1.17998 13.5912 0.707986 12.497C0.235995 11.4029 0 10.2336 0 8.98927C0 7.74493 0.235995 6.57926 0.707986 5.49225C1.17998 4.40524 1.8236 3.45411 2.63886 2.63886C3.45411 1.8236 4.40524 1.17998 5.49225 0.707986C6.57926 0.235995 7.74493 0 8.98927 0ZM12.379 3.9261H10.4696C10.0977 3.9261 9.75447 3.99046 9.43981 4.11919C9.12515 4.24791 8.84982 4.41955 8.61383 4.63409C8.37783 4.84863 8.19547 5.09178 8.06675 5.36353C7.93802 5.63528 7.87366 5.90703 7.87366 6.17878V7.31585H6.17878V9.54708H7.87366V14.0524H10.1263V9.54708H11.7998V7.31585H10.1263V6.73659C10.1263 6.56496 10.1943 6.42908 10.3302 6.32896C10.466 6.22884 10.584 6.17878 10.6841 6.17878H12.379V3.9261Z" fill="#1A1A1A"/>
</svg>
