<svg width="18" height="19" viewBox="0 0 18 19" fill="none" xmlns="http://www.w3.org/2000/svg">
<path d="M8.98927 0.930176C10.2336 0.930176 11.4029 1.16617 12.497 1.63816C13.5912 2.11015 14.5459 2.75378 15.3611 3.56903C16.1764 4.38429 16.82 5.33542 17.292 6.42243C17.764 7.50944 18 8.67511 18 9.91945C18 11.1638 17.764 12.333 17.292 13.4272C16.82 14.5214 16.1764 15.4761 15.3611 16.2913C14.5459 17.1066 13.5912 17.7502 12.497 18.2222C11.4029 18.6942 10.2336 18.9302 8.98927 18.9302C7.74493 18.9302 6.57926 18.6942 5.49225 18.2222C4.40524 17.7502 3.45411 17.1066 2.63886 16.2913C1.8236 15.4761 1.17998 14.5214 0.707986 13.4272C0.235995 12.333 0 11.1638 0 9.91945C0 8.67511 0.235995 7.50944 0.707986 6.42243C1.17998 5.33542 1.8236 4.38429 2.63886 3.56903C3.45411 2.75378 4.40524 2.11015 5.49225 1.63816C6.57926 1.16617 7.74493 0.930176 8.98927 0.930176ZM12.379 4.85628H10.4696C10.0977 4.85628 9.75447 4.92064 9.43981 5.04937C9.12515 5.17809 8.84982 5.34972 8.61383 5.56426C8.37783 5.77881 8.19547 6.02195 8.06675 6.2937C7.93802 6.56546 7.87366 6.83721 7.87366 7.10896V8.24603H6.17878V10.4773H7.87366V14.9826H10.1263V10.4773H11.7998V8.24603H10.1263V7.66677C10.1263 7.49513 10.1943 7.35926 10.3302 7.25914C10.466 7.15902 10.584 7.10896 10.6841 7.10896H12.379V4.85628Z" fill="white"/>
</svg>
